<?xml version="1.0" encoding="UTF-8"?>
<svg version="1.1" xmlns="http://www.w3.org/2000/svg" width="569" height="580">
<path d="M0 0 C187.77 0 375.54 0 569 0 C569 191.4 569 382.8 569 580 C381.23 580 193.46 580 0 580 C0 388.6 0 197.2 0 0 Z " fill="#0F1A2F" transform="translate(0,0)"/>
<path d="M0 0 C19.90544752 14.20530239 42.75661442 19.45040786 66.9375 15.6875 C82.18205028 13.0763305 97.27654536 6.60051109 108.671875 -3.96484375 C112.05574637 -5.79096744 114.24711953 -5.03190909 117.9375 -4.1875 C141.9172417 3.03306667 162.10940869 16.57539515 179.9375 33.8125 C180.93523437 34.73289062 180.93523437 34.73289062 181.953125 35.671875 C205.40266295 57.80648558 217.31200185 89.87226018 222.9375 120.8125 C222.9375 136.9825 222.9375 153.1525 222.9375 169.8125 C110.0775 169.8125 -2.7825 169.8125 -119.0625 169.8125 C-119.0625 112.26095361 -119.0625 112.26095361 -112 91.4375 C-111.71181396 90.5830127 -111.42362793 89.72852539 -111.12670898 88.84814453 C-106.03428989 74.45703907 -98.65284462 60.70053135 -89.0625 48.8125 C-88.464375 48.01457031 -87.86625 47.21664062 -87.25 46.39453125 C-72.75087454 27.39463559 -24.81596489 -18.35827886 0 0 Z " fill="#555E6F" transform="translate(233.0625,289.1875)"/>
<path d="M0 0 C0.99386719 0.556875 1.98773438 1.11375 3.01171875 1.6875 C23.62378446 13.91948193 37.23045991 34.07574766 43.2734375 57.0390625 C43.51320313 58.01617187 43.75296875 58.99328125 44 60 C44.1757959 60.61182129 44.3515918 61.22364258 44.53271484 61.85400391 C49.30569382 83.77379762 43.17661861 107.71966786 31.93359375 126.5703125 C23.07801192 140.10646889 11.90498193 149.95756983 -2 158 C-2.58185059 158.34901367 -3.16370117 158.69802734 -3.76318359 159.05761719 C-7.37896981 161.19759249 -10.87996609 162.83662863 -14.875 164.125 C-16.29425781 164.59292969 -16.29425781 164.59292969 -17.7421875 165.0703125 C-19.35480469 165.53050781 -19.35480469 165.53050781 -21 166 C-21.62044189 166.18022705 -22.24088379 166.3604541 -22.88012695 166.54614258 C-39.99694479 170.9770566 -61.67643045 169.74746828 -78 163 C-78.62745117 162.74299316 -79.25490234 162.48598633 -79.90136719 162.22119141 C-104.63174053 151.71368536 -121.07740696 131.88560558 -131.03515625 107.4609375 C-137.39835632 89.36258957 -137.80542369 66.95378223 -131 49 C-130.649375 47.98679688 -130.29875 46.97359375 -129.9375 45.9296875 C-121.19255241 22.67055606 -103.01109992 5.38686136 -80.85498047 -5.17919922 C-76.05915953 -7.3012774 -71.08107605 -8.74525995 -66 -10 C-65.32718994 -10.17515137 -64.65437988 -10.35030273 -63.96118164 -10.53076172 C-42.19353781 -15.87201787 -19.04394138 -11.13921578 0 0 Z " fill="#555E6F" transform="translate(330,110)"/>
</svg>
